PathFileType	4	(X/Y/Z)	C:/Users/beibeiliu/ov580/test_trc/User3\sequence.9_training_dense_right.trc
DataRate	CameraRate	NumFrames	NumMarkers	Units	OrigDataRate	OrigDataStartFrame	OrigNumFrames
120	120	13	19	mm	120	103	153
Frame#	Time	ThumbCMC			ThumbMCP			ThumbIP			ThumbTip			IndexMCP			IndexPIP			IndexTip			MiddleMCP			MiddlePIP			MiddleTip			RingMCP			RingPIP			RingTip			PinkyMCP			PinkyPIP			PinkyTip			BackHand1			BackHand2			BackHand3	
		X0	Y0	Z0	X1	Y1	Z1	X2	Y2	Z2	X3	Y3	Z3	X4	Y4	Z4	X5	Y5	Z5	X6	Y6	Z6	X7	Y7	Z7	X8	Y8	Z8	X9	Y9	Z9	X10	Y10	Z10	X11	Y11	Z11	X12	Y12	Z12	X13	Y13	Z13	X14	Y14	Z14	X15	Y15	Z15	X16	Y16	Z16	X17	Y17	Z17	X18	Y18	Z18	
102	0.85	70.3458	-40.2143	6.06626	50.998	-47.5809	-19.2386	38.2145	-52.5536	-49.1248	41.6563	-61.9157	-67.9478	77.4918	-17.2939	-63.955	64.0398	-33.8934	-87.4531	55.9942	-64.5685	-90.4469	105.954	-13.2263	-70.3569	99.8605	-14.7212	-101.145	90.9835	-25.7673	-133.181	124.875	-25.6558	-63.4484	124.907	-21.4063	-89.9541	123.702	-22.6044	-117.463	141.301	-42.6933	-53.5535	148.823	-42.2632	-73.7434	156.846	-41.9947	-94.8153	128.339	-27.1911	-15.372	134.398	-35.9383	17.032	103.981	-18.9714	3.81819	
103	0.858333	67.5378	-40.9399	6.97363	53.8479	-47.8165	-21.2737	44.7831	-51.5103	-49.8013	46.1303	-57.5283	-76.5975	80.5896	-15.2575	-66.7353	64.3392	-32.9518	-88.8847	57.2029	-62.5458	-91.2203	109.465	-9.67497	-68.9863	99.9882	-7.71742	-99.2943	91.4902	-15.5144	-128.814	125.811	-18.1702	-63.8909	128.568	-15.232	-87.1667	128.497	-15.2379	-114.796	145.898	-37.7214	-52.2243	151.037	-33.6995	-70.2663	159.711	-30.575	-91.6352	131.226	-25.8628	-12.543	132.625	-33.63	17.7713	99.2479	-16.7811	6.27759	
104	0.866667	72.0103	-43.0878	4.79187	52.0255	-46.6514	-25.5315	48.2918	-49.8268	-54.4857	51.2008	-55.9989	-76.4085	79.1423	-10.7574	-63.7842	67.1955	-29.1573	-90.7464	66.423	-58.7313	-94.7138	106.784	-2.15018	-69.0306	105.822	-2.64181	-97.4624	99.7505	-10.3315	-128.427	129.681	-14.2016	-61.8884	129.507	-7.02399	-87.5143	134.02	-9.33385	-115.028	146.863	-33.6321	-47.8823	155.879	-28.6041	-68.9106	162.883	-21.973	-93.553	130.652	-23.93	-7.65775	132.968	-34.8494	19.414	102.342	-19.8891	6.28679	
105	0.875	70.4736	-43.5951	1.02595	53.9411	-50.0522	-28.7729	48.0601	-53.0162	-59.9115	55.7752	-58.0418	-82.8081	81.6946	-13.7783	-68.4236	72.3355	-31.356	-91.8628	70.0915	-59.9562	-96.5076	110.292	-4.66757	-69.6043	108.771	-3.75098	-96.0079	103.236	-11.8349	-129.881	129.164	-12.6976	-63.8473	131.417	-7.11016	-88.193	135.056	-7.07835	-111.734	148.671	-32.4881	-47.7971	157.636	-25.7653	-70.9589	166.277	-23.1952	-90.4252	129.88	-23.6171	-10.9373	129.612	-32.6407	18.5064	97.8436	-19.1696	2.44937	
106	0.883333	65.8262	-47.5443	-0.136389	53.4226	-56.2547	-29.3047	49.6759	-61.1403	-60.8152	55.9604	-69.219	-80.3273	86.1709	-24.614	-72.1684	78.6509	-42.0341	-94.205	75.014	-74.8035	-96.6912	113.866	-14.1633	-73.9941	111.848	-14.3766	-103.142	107.337	-26.1372	-136.423	130.688	-20.3457	-64.3975	134.82	-17.1694	-87.7749	136.78	-18.7187	-113.984	150.607	-41.0798	-46.2267	163.128	-36.8242	-71.0444	171.613	-37.5539	-89.4722	133.411	-27.0333	-12.1272	132.501	-35.4013	18.2718	98.3766	-21.3658	-1.1136	
107	0.891667	64.9481	-49.6316	0.199991	55.0587	-62.3307	-28.2796	46.1991	-71.2545	-57.4218	47.4682	-83.3924	-77.6817	82.964	-40.7101	-75.3725	69.3682	-64.5407	-95.4401	65.1242	-96.6466	-87.5304	110.802	-35.8435	-81.2207	107.284	-42.7573	-107.414	105.874	-58.3029	-134.035	129.168	-44.2143	-68.2178	137.322	-47.0679	-95.5513	134.893	-53.6065	-119.257	148.404	-61.1727	-50.3032	157.096	-62.3824	-69.3675	162.725	-68.3585	-94.6493	132.066	-41.0628	-16.5579	129.482	-39.5695	11.128	99.0297	-27.9104	-4.80258	
108	0.9	71.7052	-39.5277	-1.83028	49.9576	-50.1888	-28.9521	34.5541	-61.6156	-51.946	35.6106	-80.093	-69.5071	83.0762	-53.769	-76.8065	59.4736	-76.9845	-91.6451	42.7185	-98.1492	-75.0395	107.108	-59.9173	-79.2385	102.508	-73.7619	-107.172	86.2298	-89.4706	-131.18	123.575	-73.9149	-72.7002	126.107	-84.3841	-95.504	120.83	-97.9392	-120.082	135.885	-90.8423	-51.7713	139.222	-98.9526	-68.787	141.588	-114.407	-90.9122	131.806	-60.4709	-19.6	132.177	-49.6173	5.73229	109.128	-31.4906	-13.2198	
109	0.908333	85.8079	-25.5756	-9.07282	61.8318	-30.5399	-29.4183	39.8068	-40.2217	-53.8336	29.7536	-59.0811	-65.6216	82.359	-58.1317	-76.5865	52.7979	-68.4369	-87.5405	25.3727	-77.4192	-66.8794	99.2756	-83.011	-81.8111	83.7836	-88.3781	-103.881	64.2882	-103.815	-123.075	107.917	-99.0225	-66.2311	102.667	-109.904	-86.2877	88.8766	-122.146	-108.193	110.579	-110.35	-43.8987	107.001	-127.459	-61.294	98.2188	-140.715	-78.4772	125.602	-78.0519	-20.1981	135.384	-69.1336	4.83534	119.602	-43.8112	-16.9517	
110	0.916667	104.242	-24.2082	-17.0159	79.1655	-17.711	-35.6428	57.8672	-14.8092	-56.291	36.2467	-29.7062	-69.741	82.8895	-63.4215	-75.2175	49.3756	-56.0026	-85.3793	26.7748	-44.1662	-68.5201	89.4296	-85.0221	-76.1049	66.9143	-92.5731	-101.021	42.8999	-95.0404	-119.7	86.7639	-103.198	-57.7296	74.4487	-112.035	-83.7247	58.4836	-118.806	-98.556	82.2132	-114.928	-34.5272	71.3808	-126.243	-50.3959	57.552	-143.301	-63.5869	112.945	-90.5522	-14.4765	125.265	-80.9055	10.7246	126.336	-57.9733	-20.7155	
111	0.925	117.399	-31.9347	-14.8907	100.649	-15.8787	-36.1895	83.7373	-5.79815	-58.9594	59.2576	-10.5474	-71.3327	85.4698	-60.4679	-75.9707	60.1326	-40.8057	-88.8822	44.1526	-18.7964	-73.8444	80.0355	-85.9851	-72.556	64.477	-82.4168	-97.4366	37.1393	-75.3188	-121.609	69.3945	-98.431	-54.2735	56.8643	-101.909	-77.4405	37.2787	-105.207	-98.0365	60.4448	-100.343	-28.9424	43.9508	-111.211	-43.5286	27.6529	-121.101	-54.9853	99.6276	-91.5236	-15.202	110.29	-90.3776	14.6522	126.692	-69.0093	-13.6311	
112	0.933333	128.183	-42.2364	-12.4543	117.418	-25.2193	-38.1613	106.926	-11.0943	-61.0129	83.8507	-6.66577	-76.6182	96.3184	-61.2794	-75.2003	77.9642	-37.259	-92.3212	68.4894	-13.5838	-83.4573	79.3013	-83.4529	-75.7649	65.5519	-80.5144	-96.6672	50.4699	-65.4839	-125.102	64.4069	-90.8682	-56.822	49.9544	-93.1822	-78.9333	31.996	-91.0795	-100.751	47.5446	-88.4107	-28.8078	28.6695	-94.8173	-42.815	12.6607	-98.1258	-57.9996	86.4266	-94.5084	-10.7522	97.2512	-91.5994	17.8293	119.342	-78.6625	-9.91963	
113	0.941667	135.826	-54.3012	-5.44566	134.052	-35.7323	-33.5078	125.313	-25.8708	-64.0707	108.612	-17.8147	-79.2749	104.807	-76.1204	-72.3083	101.235	-52.2968	-93.3087	87.6611	-20.7119	-89.1714	81.4338	-94.2637	-68.3352	72.3519	-89.2132	-99.9629	66.8112	-77.5717	-123.955	67.0577	-94.6009	-56.2058	51.7346	-97.9104	-77.4682	41.6736	-94.1412	-104.619	45.7167	-88.4259	-33.0918	31.8899	-91.8899	-50.0698	14.9765	-93.7442	-61.0838	82.6091	-96.0609	-7.98823	91.1978	-91.2383	24.458	118.013	-88.3603	-0.741495	
114	0.95	138.962	-61.3517	-0.804202	138.826	-47.8524	-27.6304	135.757	-40.7919	-55.6083	122.766	-37.5618	-80.505	122.358	-90.1022	-66.4723	117.213	-68.6039	-90.3309	105.759	-40.8428	-92.972	97.6687	-112.031	-64.9057	97.7458	-108.641	-92.4196	92.2806	-98.2597	-122.531	82.8553	-110.384	-53.4805	71.6853	-115.279	-79.3154	63.7369	-113.153	-100.646	57.2922	-101.866	-30.9925	44.3701	-107.88	-51.5228	30.9791	-109.72	-66.7279	89.1736	-104.944	1.98595	94.9258	-99.7671	25.4503	124.794	-94.9135	8.12401	
